<?xml version="1.0" encoding="UTF-8"?><svg xmlns="http://www.w3.org/2000/svg" xmlns:xlink="http://www.w3.org/1999/xlink" fill-opacity="1" color-rendering="auto" color-interpolation="auto" text-rendering="auto" stroke="black" stroke-linecap="square" width="660" stroke-miterlimit="10" shape-rendering="auto" stroke-opacity="1" fill="black" stroke-dasharray="none" font-weight="normal" stroke-width="1" height="540" font-family="'Dialog'" font-style="normal" stroke-linejoin="miter" font-size="12px" stroke-dashoffset="0" image-rendering="auto">
  <!--Generated by ySVG 2.5-->
  <defs id="genericDefs"/>
  <g>
    <defs id="defs1">
      <clipPath clipPathUnits="userSpaceOnUse" id="clipPath1">
        <path d="M0 0 L660 0 L660 540 L0 540 L0 0 Z"/>
      </clipPath>
      <clipPath clipPathUnits="userSpaceOnUse" id="clipPath2">
        <path d="M298 86 L958 86 L958 626 L298 626 L298 86 Z"/>
      </clipPath>
    </defs>
    <g fill="white" text-rendering="geometricPrecision" shape-rendering="geometricPrecision" transform="translate(-298,-86)" stroke="white">
      <rect x="298" width="660" height="540" y="86" clip-path="url(#clipPath2)" stroke="none"/>
    </g>
    <g text-rendering="geometricPrecision" stroke-miterlimit="1.45" shape-rendering="geometricPrecision" font-family="'Trebuchet MS'" transform="matrix(1,0,0,1,-298,-86)" stroke-linecap="butt">
      <text x="545.7835" xml:space="preserve" y="586.1748" clip-path="url(#clipPath2)" stroke="none">Alice: 8, Bob: 3, Charlie: 3</text>
      <rect x="536.3111" y="569.242" clip-path="url(#clipPath2)" fill="none" width="162.5815" rx="4" ry="4" height="25.264"/>
      <text x="496.6942" xml:space="preserve" y="336.8568" clip-path="url(#clipPath2)" stroke="none">Alice: 8, Bob: 0, Charlie: 6</text>
      <rect x="487.2219" y="319.924" clip-path="url(#clipPath2)" fill="none" width="162.5815" rx="4" ry="4" height="25.264"/>
      <text x="368.7035" xml:space="preserve" y="453.8568" clip-path="url(#clipPath2)" stroke="none">Alice: 3, Bob: 8, Charlie: 3</text>
      <rect x="357.2311" y="436.924" clip-path="url(#clipPath2)" fill="none" width="166.5815" rx="4" ry="4" height="25.264"/>
      <text x="752.6757" xml:space="preserve" y="461.5158" clip-path="url(#clipPath2)" stroke="none">Alice: 4, Bob: 3, Charlie: 7</text>
      <rect x="743.2033" y="444.583" clip-path="url(#clipPath2)" fill="none" width="162.5815" rx="4" ry="4" height="25.264"/>
      <text x="816.2926" font-size="14px" y="602.5656" clip-path="url(#clipPath2)" stroke="none" font-weight="bold" xml:space="preserve">Global state "Zero"</text>
      <text x="683.685" xml:space="preserve" y="336.8568" clip-path="url(#clipPath2)" stroke="none">Alice: 3, Bob: 8, Charlie: 3</text>
      <rect x="672.2126" y="319.924" clip-path="url(#clipPath2)" fill="none" width="166.5815" rx="4" ry="4" height="25.264"/>
      <text x="513.4976" xml:space="preserve" y="227.7408" clip-path="url(#clipPath2)" stroke="none">Alice: 9, Bob: 0, Charlie: 5</text>
      <rect x="502.0252" y="210.808" clip-path="url(#clipPath2)" fill="none" width="166.5815" rx="4" ry="4" height="25.264"/>
      <text x="324.9161" xml:space="preserve" y="227.7408" clip-path="url(#clipPath2)" stroke="none">Alice: 3, Bob: 5, Charlie: 6</text>
      <rect x="313.4437" y="210.808" clip-path="url(#clipPath2)" fill="none" width="166.5815" stroke-dasharray="12,4" rx="4" ry="4" height="25.264" stroke-width="2"/>
      <text x="324.9161" xml:space="preserve" y="118.6248" clip-path="url(#clipPath2)" stroke="none">Alice: 3, Bob: 2, Charlie: 9</text>
      <rect x="313.4437" y="101.692" clip-path="url(#clipPath2)" fill="none" width="166.5815" stroke-dasharray="12,4" rx="4" ry="4" height="25.264" stroke-width="2"/>
      <path fill="none" d="M615.1151 569.2438 L572.5441 353.0313" clip-path="url(#clipPath2)"/>
      <path d="M570.9986 345.182 L568.411 357.9219 L572.7372 354.0125 L578.2226 355.9901 Z" clip-path="url(#clipPath2)" stroke="none"/>
      <rect x="577.0416" y="447.923" clip-path="url(#clipPath2)" fill="rgb(255,102,0)" width="32.0312" height="18.584" stroke="none"/>
      <rect stroke-linecap="square" x="577.0416" y="447.923" clip-path="url(#clipPath2)" fill="none" width="32.0312" height="18.584" stroke-miterlimit="1.6"/>
      <text x="579.0416" xml:space="preserve" y="461.9875" clip-path="url(#clipPath2)" font-family="'Verdana'" stroke="none">b2:b</text>
      <path fill="none" d="M600.6764 569.2269 L463.8608 466.9954" clip-path="url(#clipPath2)"/>
      <path d="M457.4523 462.2068 L464.0722 473.395 L464.6619 467.594 L470.058 465.3843 Z" clip-path="url(#clipPath2)" stroke="none"/>
      <rect x="513.181" y="506.423" clip-path="url(#clipPath2)" fill="rgb(255,204,0)" width="31.7617" height="18.584" stroke="none"/>
      <rect stroke-linecap="square" x="513.181" y="506.423" clip-path="url(#clipPath2)" fill="none" width="31.7617" height="18.584" stroke-miterlimit="1.6"/>
      <text x="515.181" xml:space="preserve" y="520.4875" clip-path="url(#clipPath2)" font-family="'Verdana'" stroke="none">b1:a</text>
      <path fill="none" d="M638.5891 569.2285 L796.6957 473.9644" clip-path="url(#clipPath2)"/>
      <path d="M803.548 469.8356 L790.6891 471.7461 L795.8392 474.4805 L795.85 480.3114 Z" clip-path="url(#clipPath2)" stroke="none"/>
      <rect x="705.6447" y="510.2525" clip-path="url(#clipPath2)" fill="rgb(204,255,204)" width="30.8066" height="18.584" stroke="none"/>
      <rect stroke-linecap="square" x="705.6447" y="510.2525" clip-path="url(#clipPath2)" fill="none" width="30.8066" height="18.584" stroke-miterlimit="1.6"/>
      <text x="707.6447" xml:space="preserve" y="524.317" clip-path="url(#clipPath2)" font-family="'Verdana'" stroke="none">b4:c</text>
      <path fill="none" stroke-dasharray="18,6" d="M848.9517 584.9053 L817.9861 570.7168 L806.1974 565.7726 L794.7865 561.9163 L783.7534 559.148 L773.0982 557.4677 L762.8208 556.8752 L752.9213 557.3708 L743.3995 558.9543 L734.2556 561.6259 L708.3098 570.9423" stroke-width="3" clip-path="url(#clipPath2)"/>
      <path stroke-dasharray="18,6" d="M698.8981 574.3217 L715.1277 575.1348 L709.4863 570.5198 L710.9034 563.3702 Z" stroke-width="3" clip-path="url(#clipPath2)" stroke="none"/>
      <path fill="none" d="M624.5878 569.2438 L744.6476 352.1826" clip-path="url(#clipPath2)"/>
      <path d="M748.5197 345.1821 L738.3362 353.2627 L744.1636 353.0576 L747.0869 358.1029 Z" clip-path="url(#clipPath2)" stroke="none"/>
      <rect x="670.6717" y="447.923" clip-path="url(#clipPath2)" fill="rgb(204,255,255)" width="31.7617" height="18.584" stroke="none"/>
      <rect stroke-linecap="square" x="670.6717" y="447.923" clip-path="url(#clipPath2)" fill="none" width="31.7617" height="18.584" stroke-miterlimit="1.6"/>
      <text x="672.6718" xml:space="preserve" y="461.9875" clip-path="url(#clipPath2)" font-family="'Verdana'" stroke="none">b3:a</text>
      <path fill="none" d="M570.4612 319.9022 L582.1472 244.0169" clip-path="url(#clipPath2)"/>
      <path d="M583.3648 236.1101 L576.5967 247.2093 L581.995 245.0052 L586.4802 248.7313 Z" clip-path="url(#clipPath2)" stroke="none"/>
      <rect x="560.8986" y="268.706" clip-path="url(#clipPath2)" fill="rgb(255,102,0)" width="32.0312" height="18.584" stroke="none"/>
      <rect stroke-linecap="square" x="560.8986" y="268.706" clip-path="url(#clipPath2)" fill="none" width="32.0312" height="18.584" stroke-miterlimit="1.6"/>
      <text x="562.8986" xml:space="preserve" y="282.7704" clip-path="url(#clipPath2)" font-family="'Verdana'" stroke="none">b5:d</text>
      <path fill="none" d="M438.0791 436.9419 L400.7032 243.9343" clip-path="url(#clipPath2)"/>
      <path d="M399.1823 236.0802 L396.5548 248.8119 L400.8933 244.916 L406.3725 246.9107 Z" clip-path="url(#clipPath2)" stroke="none"/>
      <rect x="412.8899" y="327.206" clip-path="url(#clipPath2)" fill="rgb(255,204,0)" width="11.4766" height="18.584" stroke="none"/>
      <rect stroke-linecap="square" x="412.8899" y="327.206" clip-path="url(#clipPath2)" fill="none" width="11.4766" height="18.584" stroke-miterlimit="1.6"/>
      <text x="414.8899" xml:space="preserve" y="341.2704" clip-path="url(#clipPath2)" font-family="'Verdana'" stroke="none">b</text>
      <path fill="none" d="M548.592 319.9022 L423.3963 240.376" clip-path="url(#clipPath2)"/>
      <path d="M416.6435 236.0865 L424.0918 246.7412 L424.2404 240.9122 L429.4536 238.3002 Z" clip-path="url(#clipPath2)" stroke="none"/>
      <rect x="477.02" y="268.706" clip-path="url(#clipPath2)" fill="rgb(255,204,0)" width="11.207" height="18.584" stroke="none"/>
      <rect stroke-linecap="square" x="477.02" y="268.706" clip-path="url(#clipPath2)" fill="none" width="11.207" height="18.584" stroke-miterlimit="1.6"/>
      <text x="479.02" xml:space="preserve" y="282.7704" clip-path="url(#clipPath2)" font-family="'Verdana'" stroke="none">a</text>
      <path fill="none" d="M396.7345 210.7862 L396.7345 134.9941" clip-path="url(#clipPath2)"/>
      <path d="M396.7345 126.9941 L391.7345 138.9941 L396.7345 135.9941 L401.7345 138.9941 Z" clip-path="url(#clipPath2)" stroke="none"/>
      <rect x="380.7188" y="159.59" clip-path="url(#clipPath2)" fill="rgb(255,204,0)" width="32.0312" height="18.584" stroke="none"/>
      <rect stroke-linecap="square" x="380.7188" y="159.59" clip-path="url(#clipPath2)" fill="none" width="32.0312" height="18.584" stroke-miterlimit="1.6"/>
      <text x="382.7188" xml:space="preserve" y="173.6545" clip-path="url(#clipPath2)" font-family="'Verdana'" stroke="none">b6:b</text>
    </g>
  </g>
</svg>
