<?xml version="1.0" encoding="UTF-8"?><svg xmlns="http://www.w3.org/2000/svg" xmlns:xlink="http://www.w3.org/1999/xlink" fill-opacity="1" color-rendering="auto" color-interpolation="auto" text-rendering="auto" stroke="black" stroke-linecap="square" width="642" stroke-miterlimit="10" shape-rendering="auto" stroke-opacity="1" fill="black" stroke-dasharray="none" font-weight="normal" stroke-width="1" height="415" font-family="'Dialog'" font-style="normal" stroke-linejoin="miter" font-size="12px" stroke-dashoffset="0" image-rendering="auto">
  <!--Generated by ySVG 2.5-->
  <defs id="genericDefs"/>
  <g>
    <defs id="defs1">
      <clipPath clipPathUnits="userSpaceOnUse" id="clipPath1">
        <path d="M0 0 L642 0 L642 415 L0 415 L0 0 Z"/>
      </clipPath>
      <clipPath clipPathUnits="userSpaceOnUse" id="clipPath2">
        <path d="M470 195 L1112 195 L1112 610 L470 610 L470 195 Z"/>
      </clipPath>
    </defs>
    <g fill="white" text-rendering="geometricPrecision" shape-rendering="geometricPrecision" transform="translate(-470,-195)" stroke="white">
      <rect x="470" width="642" height="415" y="195" clip-path="url(#clipPath2)" stroke="none"/>
    </g>
    <g text-rendering="geometricPrecision" stroke-miterlimit="1.45" shape-rendering="geometricPrecision" font-family="'Trebuchet MS'" transform="matrix(1,0,0,1,-470,-195)" stroke-linecap="butt">
      <text x="498.6942" xml:space="preserve" y="586.1748" clip-path="url(#clipPath2)" stroke="none">Alice: 8, Bob: 3, Charlie: 3</text>
      <rect x="489.2219" y="569.242" clip-path="url(#clipPath2)" fill="none" width="162.5815" rx="4" ry="4" height="25.264"/>
      <text x="493.5478" xml:space="preserve" y="336.8568" clip-path="url(#clipPath2)" stroke="none">Alice: 4, Bob: 0, Charlie: 10</text>
      <rect x="487.2219" y="319.924" clip-path="url(#clipPath2)" fill="none" width="162.5815" rx="4" ry="4" height="25.264"/>
      <text x="498.6942" xml:space="preserve" y="461.5158" clip-path="url(#clipPath2)" stroke="none">Alice: 4, Bob: 3, Charlie: 7</text>
      <rect x="489.2219" y="444.583" clip-path="url(#clipPath2)" fill="none" width="162.5815" rx="4" ry="4" height="25.264"/>
      <text x="496.6942" xml:space="preserve" y="227.7408" clip-path="url(#clipPath2)" stroke="none">Alice: 5, Bob: 0, Charlie: 9</text>
      <rect x="485.2219" y="210.808" clip-path="url(#clipPath2)" fill="none" width="166.5815" rx="4" ry="4" height="25.264"/>
      <text x="716.9161" xml:space="preserve" y="586.1748" clip-path="url(#clipPath2)" stroke="none">Alice: 8, Bob: 3, Charlie: 3</text>
      <rect x="707.4437" y="569.242" clip-path="url(#clipPath2)" fill="none" width="162.5815" rx="4" ry="4" height="25.264"/>
      <text x="711.7696" xml:space="preserve" y="336.8568" clip-path="url(#clipPath2)" stroke="none">Alice: 4, Bob: 0, Charlie: 10</text>
      <rect x="705.4437" y="319.924" clip-path="url(#clipPath2)" fill="none" width="162.5815" rx="4" ry="4" height="25.264"/>
      <text x="716.9161" xml:space="preserve" y="461.5158" clip-path="url(#clipPath2)" stroke="none">Alice: 8, Bob: 0, Charlie: 6</text>
      <rect x="707.4437" y="444.583" clip-path="url(#clipPath2)" fill="none" width="162.5815" rx="4" ry="4" height="25.264"/>
      <text x="714.9161" xml:space="preserve" y="227.7408" clip-path="url(#clipPath2)" stroke="none">Alice: 5, Bob: 0, Charlie: 9</text>
      <rect x="703.4437" y="210.808" clip-path="url(#clipPath2)" fill="none" width="166.5815" rx="4" ry="4" height="25.264"/>
      <text x="943.3598" xml:space="preserve" y="586.1748" clip-path="url(#clipPath2)" stroke="none">Alice: 8, Bob: 3, Charlie: 3</text>
      <rect x="933.8874" y="569.242" clip-path="url(#clipPath2)" fill="none" width="162.5815" rx="4" ry="4" height="25.264"/>
      <text x="941.3598" xml:space="preserve" y="336.8568" clip-path="url(#clipPath2)" stroke="none">Alice: 9, Bob: 0, Charlie: 5</text>
      <rect x="931.8874" y="319.924" clip-path="url(#clipPath2)" fill="none" width="162.5815" rx="4" ry="4" height="25.264"/>
      <text x="943.3598" xml:space="preserve" y="461.5158" clip-path="url(#clipPath2)" stroke="none">Alice: 8, Bob: 0, Charlie: 6</text>
      <rect x="933.8874" y="444.583" clip-path="url(#clipPath2)" fill="none" width="162.5815" rx="4" ry="4" height="25.264"/>
      <text x="941.3598" xml:space="preserve" y="227.7408" clip-path="url(#clipPath2)" stroke="none">Alice: 9, Bob: 0, Charlie: 5</text>
      <rect x="929.8874" y="210.808" clip-path="url(#clipPath2)" fill="none" width="166.5815" rx="4" ry="4" height="25.264"/>
      <path fill="none" d="M570.5126 569.2438 L570.5126 477.8237" clip-path="url(#clipPath2)"/>
      <path d="M570.5126 469.8237 L565.5126 481.8237 L570.5126 478.8237 L575.5126 481.8237 Z" clip-path="url(#clipPath2)" stroke="none"/>
      <rect x="555.1093" y="510.2525" clip-path="url(#clipPath2)" fill="rgb(204,255,204)" width="30.8066" height="18.584" stroke="none"/>
      <rect stroke-linecap="square" x="555.1093" y="510.2525" clip-path="url(#clipPath2)" fill="none" width="30.8066" height="18.584" stroke-miterlimit="1.6"/>
      <text x="557.1093" xml:space="preserve" y="524.317" clip-path="url(#clipPath2)" font-family="'Verdana'" stroke="none">b4:c</text>
      <path fill="none" d="M570.3099 444.5847 L568.8432 353.1637" clip-path="url(#clipPath2)"/>
      <path d="M568.7149 345.1647 L563.908 357.2433 L568.8593 354.1635 L573.9067 357.083 Z" clip-path="url(#clipPath2)" stroke="none"/>
      <rect x="553.497" y="385.5935" clip-path="url(#clipPath2)" fill="rgb(255,102,0)" width="32.0312" height="18.584" stroke="none"/>
      <rect stroke-linecap="square" x="553.497" y="385.5935" clip-path="url(#clipPath2)" fill="none" width="32.0312" height="18.584" stroke-miterlimit="1.6"/>
      <text x="555.4969" xml:space="preserve" y="399.658" clip-path="url(#clipPath2)" font-family="'Verdana'" stroke="none">b2:b</text>
      <path fill="none" d="M568.5126 319.9022 L568.5126 244.1101" clip-path="url(#clipPath2)"/>
      <path d="M568.5126 236.1101 L563.5126 248.1101 L568.5126 245.1101 L573.5126 248.1101 Z" clip-path="url(#clipPath2)" stroke="none"/>
      <rect x="552.497" y="268.706" clip-path="url(#clipPath2)" fill="rgb(255,102,0)" width="32.0312" height="18.584" stroke="none"/>
      <rect stroke-linecap="square" x="552.497" y="268.706" clip-path="url(#clipPath2)" fill="none" width="32.0312" height="18.584" stroke-miterlimit="1.6"/>
      <text x="554.4969" xml:space="preserve" y="282.7704" clip-path="url(#clipPath2)" font-family="'Verdana'" stroke="none">b5:d</text>
      <path fill="none" d="M788.7344 569.2438 L788.7344 477.8237" clip-path="url(#clipPath2)"/>
      <path d="M788.7344 469.8237 L783.7344 481.8237 L788.7344 478.8237 L793.7344 481.8237 Z" clip-path="url(#clipPath2)" stroke="none"/>
      <rect x="772.7188" y="510.2525" clip-path="url(#clipPath2)" fill="rgb(255,102,0)" width="32.0312" height="18.584" stroke="none"/>
      <rect stroke-linecap="square" x="772.7188" y="510.2525" clip-path="url(#clipPath2)" fill="none" width="32.0312" height="18.584" stroke-miterlimit="1.6"/>
      <text x="774.7188" xml:space="preserve" y="524.317" clip-path="url(#clipPath2)" font-family="'Verdana'" stroke="none">b2:b</text>
      <path fill="none" d="M788.5318 444.5847 L787.0651 353.1637" clip-path="url(#clipPath2)"/>
      <path d="M786.9368 345.1647 L782.1299 357.2433 L787.0811 354.1635 L792.1285 357.083 Z" clip-path="url(#clipPath2)" stroke="none"/>
      <rect x="772.3311" y="385.5935" clip-path="url(#clipPath2)" fill="rgb(204,255,204)" width="30.8066" height="18.584" stroke="none"/>
      <rect stroke-linecap="square" x="772.3311" y="385.5935" clip-path="url(#clipPath2)" fill="none" width="30.8066" height="18.584" stroke-miterlimit="1.6"/>
      <text x="774.3311" xml:space="preserve" y="399.658" clip-path="url(#clipPath2)" font-family="'Verdana'" stroke="none">b4:c</text>
      <path fill="none" d="M786.7344 319.9022 L786.7344 244.1101" clip-path="url(#clipPath2)"/>
      <path d="M786.7344 236.1101 L781.7344 248.1101 L786.7344 245.1101 L791.7344 248.1101 Z" clip-path="url(#clipPath2)" stroke="none"/>
      <rect x="770.7188" y="268.706" clip-path="url(#clipPath2)" fill="rgb(255,102,0)" width="32.0312" height="18.584" stroke="none"/>
      <rect stroke-linecap="square" x="770.7188" y="268.706" clip-path="url(#clipPath2)" fill="none" width="32.0312" height="18.584" stroke-miterlimit="1.6"/>
      <text x="772.7188" xml:space="preserve" y="282.7704" clip-path="url(#clipPath2)" font-family="'Verdana'" stroke="none">b5:d</text>
      <path fill="none" d="M1015.1782 569.2438 L1015.1782 477.8237" clip-path="url(#clipPath2)"/>
      <path d="M1015.1782 469.8237 L1010.1782 481.8237 L1015.1782 478.8237 L1020.1782 481.8237 Z" clip-path="url(#clipPath2)" stroke="none"/>
      <rect x="999.1626" y="510.2525" clip-path="url(#clipPath2)" fill="rgb(255,102,0)" width="32.0312" height="18.584" stroke="none"/>
      <rect stroke-linecap="square" x="999.1626" y="510.2525" clip-path="url(#clipPath2)" fill="none" width="32.0312" height="18.584" stroke-miterlimit="1.6"/>
      <text x="1001.1625" xml:space="preserve" y="524.317" clip-path="url(#clipPath2)" font-family="'Verdana'" stroke="none">b2:b</text>
      <path fill="none" d="M1014.9755 444.5847 L1013.5088 353.1637" clip-path="url(#clipPath2)"/>
      <path d="M1013.3805 345.1647 L1008.5736 357.2433 L1013.5248 354.1635 L1018.5723 357.083 Z" clip-path="url(#clipPath2)" stroke="none"/>
      <rect x="998.1626" y="385.5935" clip-path="url(#clipPath2)" fill="rgb(255,102,0)" width="32.0312" height="18.584" stroke="none"/>
      <rect stroke-linecap="square" x="998.1626" y="385.5935" clip-path="url(#clipPath2)" fill="none" width="32.0312" height="18.584" stroke-miterlimit="1.6"/>
      <text x="1000.1625" xml:space="preserve" y="399.658" clip-path="url(#clipPath2)" font-family="'Verdana'" stroke="none">b5:d</text>
      <path fill="none" d="M1013.1782 319.9022 L1013.1782 244.1101" clip-path="url(#clipPath2)"/>
      <path d="M1013.1782 236.1101 L1008.1782 248.1101 L1013.1782 245.1101 L1018.1782 248.1101 Z" clip-path="url(#clipPath2)" stroke="none"/>
      <rect x="997.7749" y="268.706" clip-path="url(#clipPath2)" fill="rgb(204,255,204)" width="30.8066" height="18.584" stroke="none"/>
      <rect stroke-linecap="square" x="997.7749" y="268.706" clip-path="url(#clipPath2)" fill="none" width="30.8066" height="18.584" stroke-miterlimit="1.6"/>
      <text x="999.7748" xml:space="preserve" y="282.7704" clip-path="url(#clipPath2)" font-family="'Verdana'" stroke="none">b4:c</text>
    </g>
  </g>
</svg>
