<?xml version="1.0" encoding="UTF-8"?><svg xmlns="http://www.w3.org/2000/svg" xmlns:xlink="http://www.w3.org/1999/xlink" fill-opacity="1" color-rendering="auto" color-interpolation="auto" text-rendering="auto" stroke="black" stroke-linecap="square" width="441" stroke-miterlimit="10" shape-rendering="auto" stroke-opacity="1" fill="black" stroke-dasharray="none" font-weight="normal" stroke-width="1" height="287" font-family="'Dialog'" font-style="normal" stroke-linejoin="miter" font-size="12px" stroke-dashoffset="0" image-rendering="auto">
  <!--Generated by ySVG 2.5-->
  <defs id="genericDefs"/>
  <g>
    <defs id="defs1">
      <clipPath clipPathUnits="userSpaceOnUse" id="clipPath1">
        <path d="M0 0 L441 0 L441 287 L0 287 L0 0 Z"/>
      </clipPath>
      <clipPath clipPathUnits="userSpaceOnUse" id="clipPath2">
        <path d="M517 339 L958 339 L958 626 L517 626 L517 339 Z"/>
      </clipPath>
    </defs>
    <g fill="white" text-rendering="geometricPrecision" shape-rendering="geometricPrecision" transform="translate(-517,-339)" stroke="white">
      <rect x="517" width="441" height="287" y="339" clip-path="url(#clipPath2)" stroke="none"/>
    </g>
    <g text-rendering="geometricPrecision" stroke-miterlimit="1.45" shape-rendering="geometricPrecision" font-family="'Trebuchet MS'" transform="matrix(1,0,0,1,-517,-339)" stroke-linecap="butt">
      <text x="550.7835" xml:space="preserve" y="596.2908" clip-path="url(#clipPath2)" stroke="none">Alice: 8, Bob: 3, Charlie: 3</text>
      <rect x="534.3111" y="579.358" clip-path="url(#clipPath2)" fill="none" width="176.5815" rx="4" ry="4" height="25.264"/>
      <text x="549.7835" xml:space="preserve" y="483.6318" clip-path="url(#clipPath2)" stroke="none">Alice: 3, Bob: 8, Charlie: 3</text>
      <rect x="532.3111" y="466.699" clip-path="url(#clipPath2)" fill="none" width="178.5815" rx="4" ry="4" height="25.264"/>
      <text x="816.2926" font-size="14px" y="602.6816" clip-path="url(#clipPath2)" stroke="none" font-weight="bold" xml:space="preserve">Global state "Zero"</text>
      <text x="544.4339" xml:space="preserve" y="370.9728" clip-path="url(#clipPath2)" stroke="none">Alice: -2, Bob: 13, Charlie: 3</text>
      <rect x="532.3111" y="354.04" clip-path="url(#clipPath2)" fill="none" width="178.5815" stroke-dasharray="12,4" rx="4" ry="4" height="25.264" stroke-width="2"/>
      <path fill="none" d="M622.4898 579.3654 L621.7852 499.9815" clip-path="url(#clipPath2)"/>
      <path d="M621.7142 491.9818 L616.8209 504.0257 L621.794 500.9814 L626.8204 503.937 Z" clip-path="url(#clipPath2)" stroke="none"/>
      <rect x="606.221" y="526.3685" clip-path="url(#clipPath2)" fill="rgb(255,204,0)" width="31.7617" height="18.584" stroke="none"/>
      <rect stroke-linecap="square" x="606.221" y="526.3685" clip-path="url(#clipPath2)" fill="none" width="31.7617" height="18.584" stroke-miterlimit="1.6"/>
      <text x="608.221" xml:space="preserve" y="540.433" clip-path="url(#clipPath2)" font-family="'Verdana'" stroke="none">b1:a</text>
      <path fill="none" stroke-dasharray="18,6" d="M848.9517 585.0214 L817.9861 570.8328 L806.2767 565.9589 L795.1036 562.3135 L784.4669 559.8968 L774.3666 558.7087 L764.8027 558.7491 L755.7753 560.0181 L747.2841 562.5157 L739.3294 566.2419 L719.4494 577.4678" stroke-width="3" clip-path="url(#clipPath2)"/>
      <path stroke-dasharray="18,6" d="M710.7418 582.3849 L726.8763 580.4516 L720.5378 576.8532 L720.73 569.5671 Z" stroke-width="3" clip-path="url(#clipPath2)" stroke="none"/>
      <path fill="none" d="M621.6019 466.7064 L621.6019 387.3228" clip-path="url(#clipPath2)"/>
      <path d="M621.6019 379.3228 L616.6019 391.3228 L621.6019 388.3228 L626.6019 391.3228 Z" clip-path="url(#clipPath2)" stroke="none"/>
      <rect x="605.721" y="413.7095" clip-path="url(#clipPath2)" fill="rgb(204,255,255)" width="31.7617" height="18.584" stroke="none"/>
      <rect stroke-linecap="square" x="605.721" y="413.7095" clip-path="url(#clipPath2)" fill="none" width="31.7617" height="18.584" stroke-miterlimit="1.6"/>
      <text x="607.721" xml:space="preserve" y="427.774" clip-path="url(#clipPath2)" font-family="'Verdana'" stroke="none">b3:a</text>
    </g>
  </g>
</svg>
