<?xml version="1.0" encoding="utf-8"?>
<!-- Generator: Adobe Illustrator 25.2.0, SVG Export Plug-In . SVG Version: 6.00 Build 0)  -->
<svg version="1.1" id="Layer_1" xmlns="http://www.w3.org/2000/svg" xmlns:xlink="http://www.w3.org/1999/xlink" x="0px" y="0px"
	 viewBox="0 0 1035 278" style="enable-background:new 0 0 1035 278;" xml:space="preserve">
<style type="text/css">
	.st0{fill:#FFFFFF;}
</style>
<g id="Page-1">
	<g id="casper-logo-primary-white">
		<path id="Path" class="st0" d="M359.2,232.2c-54.4,0-88.5-38.5-88.5-90.2c0-51.2,34.4-90.2,88.8-90.2c43.9,0,69.5,22.7,80.2,56.6
			h-29.3c-9.3-21-24.4-31.7-51-31.7c-37.1,0-59.3,29-59.3,65.4s22.2,65.4,59.3,65.4c28.5,0,43.9-12.7,51-31.7h29.3
			C431.6,208.1,402.9,232.2,359.2,232.2z"/>
		<path id="Shape" class="st0" d="M563.6,229.1h-28.8c-0.9-5.6-1.3-11.2-1.2-16.8v-3.7h-0.2c-4.4,11.5-15.8,23.7-40,23.7
			c-28.3,0-44.4-17.6-44.4-37.6c0-36.6,42.9-37.6,61-40.5c16.6-2.7,23.4-5.1,23.4-15.6c0-10.5-9-17.3-24.4-17.3
			c-13.7,0-23.4,7.6-24.1,20.2h-27.6c1.2-20.7,17.6-42.2,51.2-42.2c41.9,0,52.7,25.1,52.7,52.2V200
			C561.2,209.6,561.6,222.5,563.6,229.1z M534.1,157.8c-2.9,7.6-10,13.4-30.7,17.1c-17.3,3.2-26.3,8-26.3,19.3
			c0,10,8.8,17.3,23.4,17.3c17.3,0,33.7-12.4,33.7-40.5V157.8z"/>
		<path id="Path_1_" class="st0" d="M625.5,121c-11,0-20.5,6.6-20.5,15.6c0,12.2,14.6,15.6,35.8,20.5c22.2,4.9,38.3,15.4,38.3,35.6
			c0,25.1-24.2,39.8-52,39.8c-25.9,0-50.2-11.7-53.2-42h28c2.4,13.9,11,20.2,25.6,20.2c12,0,23.2-4.9,23.2-16.6
			c0-12.4-12.4-14.4-32.7-19.3c-20.2-4.6-40.5-14.1-40.5-37.1s22.4-38.3,48.3-38.3c27.3,0,47.8,13.9,50.7,41.2h-26.7
			C648,126.9,637,121,625.5,121z"/>
		<path id="Shape_1_" class="st0" d="M820.9,165.6c0,39.3-23.9,67.1-57.3,67.1c-21.7,0-35.9-11.5-41-26.6h-0.2v71.5h-29V103h29.3
			v22.9c4.6-13.7,19.3-26.3,41-26.3C797,99.6,820.9,126.6,820.9,165.6z M792.4,165.6c0-23.9-13.7-42.9-35.8-42.9
			c-21.7,0-35.1,16.8-36.1,40.2v2.7c0,24.9,11.5,43.7,36.1,43.7C779.2,209.3,792.4,190,792.4,165.6z"/>
		<path id="Shape_2_" class="st0" d="M953.6,173.7h-97.1c2,22.9,16.6,36.1,36.3,36.1c14.4,0,26.3-5.4,31-18h28
			c-7.6,25.6-29.3,40.7-59,40.7c-37.8,0-63.7-27.1-63.7-66.8c0-38.3,26.8-66.1,63.7-66.1c42.9,0,60.5,33.2,60.7,68.8V173.7z
			 M925.6,153.2c-2-19.8-13.4-31.7-32.9-31.7c-19.5,0-32.7,12.4-35.6,31.7H925.6z"/>
		<path id="Path_2_" class="st0" d="M997,169.3v59.8h-28.3V103h27.8v26.8h0.5c4.9-17.1,17.1-28.3,37.1-29.3v28.3
			C1010.2,129.1,997,144.4,997,169.3z"/>
		<path id="Path_3_" class="st0" d="M227.1,214.7c-6.6,0-12.2,4.6-13.6,11l-52.5-2.5c0.2-1,0.3-2,0.3-3c0-1.8-0.3-3.6-0.8-5.4
			l19.1-11c4.7,5.8,13.2,7,19.3,2.6c6.1-4.4,7.7-12.8,3.6-19.1s-12.4-8.3-18.9-4.6s-9,11.9-5.6,18.6l-18.5,10.7
			c-4.4-9.3-15.3-13.5-24.8-9.6s-14.3,14.6-10.9,24.3L89.4,235c-0.2-4.7-2.2-9.1-5.5-12.5l6.2-8.6c7,2.4,14.7-1.1,17.5-8
			c2.8-6.9-0.3-14.8-7-17.9c-6.7-3.2-14.8-0.5-18.3,6c-3.5,6.5-1.3,14.7,5,18.6l-5.7,7.9c-4-3-9.1-4.3-14.1-3.7l-5.9-33.7
			c7.4-1.6,13.1-7.4,14.7-14.7c1.6-7.4-1.2-15-7.2-19.5c-6-4.6-14.1-5.2-20.7-1.7l-14.9-29.1c3.2-1.6,5.8-4.1,7.7-7.1l12.4,3.3
			c-0.1,0.7-0.2,1.3-0.2,2c0,7.2,5.5,13.3,12.7,14c7.2,0.7,13.8-4.2,15.1-11.4s-3-14.1-10-16c-7-2-14.3,1.7-16.9,8.5l-11.7-3.1
			c1.6-3.8,1.9-8,0.9-12L78,80.4c6.4,8,18,9.7,26.4,3.7s10.6-17.5,5-26.1l22-21.5c2.7,1.7,5.8,2.8,8.9,3V49
			c-7.3,0.8-12.8,7.2-12.4,14.6c0.4,7.4,6.5,13.2,13.9,13.2c7.4,0,13.5-5.8,13.9-13.2s-5-13.8-12.4-14.6v-9.5c2.8-0.2,5.4-1,7.8-2.3
			l24.1,27.5c-5.6,7.4-5.2,17.7,0.9,24.6c6.2,6.9,16.4,8.5,24.4,3.7s11.4-14.5,8.3-23.2l7.5-4.2c4.8,5.6,13.1,6.6,19,2.1
			c5.9-4.4,7.3-12.7,3.2-18.8s-12.3-8-18.6-4.2s-8.6,11.8-5.2,18.4l-7.1,4c-2.9-5.3-8.1-8.9-14-9.8c-5.9-0.9-12,1-16.3,5.2
			l-23.6-26.9c2.3-1.8,4.2-4.2,5.5-6.8l20.7,3.4c1.6,7.2,8.6,11.9,15.8,10.6c7.3-1.2,12.3-7.9,11.5-15.2s-7.2-12.8-14.5-12.4
			c-7.4,0.4-13.1,6.4-13.2,13.8l-19.2-3.2c2.7-9.2-1.7-19-10.4-23.1c-8.7-4.1-19-1.1-24.3,6.9c-5.3,8-3.9,18.7,3.3,25.1l-21.4,20.9
			c-3.3-3.8-8-6.2-13-6.6V34.4c7.3-0.8,12.8-7.2,12.4-14.6S100.5,6.7,93.1,6.7c-7.4,0-13.5,5.8-13.9,13.2c-0.4,7.4,5,13.8,12.4,14.6
			V49c-6.6,0.5-12.5,4.4-15.6,10.2c-3.1,5.9-3,12.9,0.3,18.7L42.7,93.3c-1.2-2.9-3.1-5.4-5.5-7.4l13.1-23.6c1.2,0.3,2.3,0.5,3.5,0.5
			c7.1,0,13-5.3,13.9-12.3S64,37,57.2,35.3c-6.9-1.7-13.9,2-16.4,8.6c-2.5,6.6,0.4,14,6.6,17.3L34.7,84.2C27,79.6,17.3,80.9,11,87.3
			c-6.2,6.4-7.3,16.1-2.6,23.7c4.7,7.6,13.9,11,22.4,8.3l15.1,29.5c-3.8,2.8-6.5,7-7.4,11.6l-11-3.2c0.3-1.1,0.4-2.3,0.4-3.4
			c0-7.1-5.3-13-12.3-13.8c-7-0.8-13.5,3.7-15.2,10.6s2.1,13.9,8.8,16.3c6.6,2.4,14-0.5,17.2-6.8l11.7,3.4c0,0.3,0,0.6,0,0.9
			c0,6.6,3.3,12.7,8.9,16.2l-7.5,9.8c-5.5-4.9-13.9-4.6-19.1,0.7S15,204.7,20,210.2s13.3,6.1,19.1,1.4s6.8-13,2.5-19l8.1-10.6
			c2.4,1.1,5.1,1.6,7.8,1.6c0.4,0,0.8,0,1.2-0.1l6,33.9c-8,2.4-13.6,9.7-13.9,18c-0.2,8.4,5,15.9,12.9,18.7
			c7.9,2.8,16.7,0.2,21.8-6.5l28,12.5c-0.2,1-0.4,2.1-0.4,3.1c0,7.1,5.3,13.1,12.4,13.9c7.1,0.8,13.6-3.8,15.2-10.7
			c1.6-6.9-2.3-13.9-9-16.3c-6.7-2.4-14.1,0.7-17.2,7.1l-27.3-12.2c1.2-2.2,2-4.6,2.2-7.1l35.6-8.7c2.7,5,7.5,8.5,13.1,9.7
			c5.6,1.1,11.4-0.3,15.8-3.8l13.3,11.5c-3.1,6.8-0.4,14.8,6.2,18.2c6.6,3.5,14.7,1.2,18.5-5.2c3.8-6.4,2-14.6-4.1-18.8
			c-6.2-4.2-14.5-2.8-19,3.1l-12.7-10.9c1.9-2,3.3-4.5,4.2-7.1l52.9,2.6c0.1,7.7,6.3,13.8,14,13.8c7.7,0,13.9-6.3,13.8-13.9
			C241,220.9,234.8,214.7,227.1,214.7L227.1,214.7z"/>
	</g>
</g>
</svg>
