<?xml version="1.0" encoding="UTF-8"?><svg xmlns="http://www.w3.org/2000/svg" xmlns:xlink="http://www.w3.org/1999/xlink" fill-opacity="1" color-rendering="auto" color-interpolation="auto" text-rendering="auto" stroke="black" stroke-linecap="square" width="439" stroke-miterlimit="10" shape-rendering="auto" stroke-opacity="1" fill="black" stroke-dasharray="none" font-weight="normal" stroke-width="1" height="298" font-family="'Dialog'" font-style="normal" stroke-linejoin="miter" font-size="12px" stroke-dashoffset="0" image-rendering="auto">
  <!--Generated by ySVG 2.5-->
  <defs id="genericDefs"/>
  <g>
    <defs id="defs1">
      <clipPath clipPathUnits="userSpaceOnUse" id="clipPath1">
        <path d="M0 0 L439 0 L439 298 L0 298 L0 0 Z"/>
      </clipPath>
      <clipPath clipPathUnits="userSpaceOnUse" id="clipPath2">
        <path d="M519 328 L958 328 L958 626 L519 626 L519 328 Z"/>
      </clipPath>
    </defs>
    <g fill="white" text-rendering="geometricPrecision" shape-rendering="geometricPrecision" transform="translate(-519,-328)" stroke="white">
      <rect x="519" width="439" height="298" y="328" clip-path="url(#clipPath2)" stroke="none"/>
    </g>
    <g text-rendering="geometricPrecision" stroke-miterlimit="1.45" shape-rendering="geometricPrecision" font-family="'Trebuchet MS'" transform="matrix(1,0,0,1,-519,-328)" stroke-linecap="butt">
      <text x="545.7835" xml:space="preserve" y="586.2908" clip-path="url(#clipPath2)" stroke="none">Alice: 8, Bob: 3, Charlie: 3</text>
      <rect x="536.3111" y="569.358" clip-path="url(#clipPath2)" fill="none" width="162.5815" rx="4" ry="4" height="25.264"/>
      <text x="543.7835" xml:space="preserve" y="359.9728" clip-path="url(#clipPath2)" stroke="none">Alice: 3, Bob: 5, Charlie: 6</text>
      <rect x="534.3111" y="343.04" clip-path="url(#clipPath2)" fill="none" width="162.5815" rx="4" ry="4" height="25.264"/>
      <text x="545.7835" xml:space="preserve" y="473.1318" clip-path="url(#clipPath2)" stroke="none">Alice: 3, Bob: 8, Charlie: 3</text>
      <rect x="534.3111" y="456.199" clip-path="url(#clipPath2)" fill="none" width="166.5815" rx="4" ry="4" height="25.264"/>
      <text x="816.2926" font-size="14px" y="602.6816" clip-path="url(#clipPath2)" stroke="none" font-weight="bold" xml:space="preserve">Global state "Zero"</text>
      <path fill="none" d="M617.6019 569.3646 L617.6019 489.4468" clip-path="url(#clipPath2)"/>
      <path d="M617.6019 481.4468 L612.6019 493.4468 L617.6019 490.4468 L622.6019 493.4468 Z" clip-path="url(#clipPath2)" stroke="none"/>
      <rect x="601.721" y="516.1185" clip-path="url(#clipPath2)" fill="rgb(255,204,0)" width="31.7617" height="18.584" stroke="none"/>
      <rect stroke-linecap="square" x="601.721" y="516.1185" clip-path="url(#clipPath2)" fill="none" width="31.7617" height="18.584" stroke-miterlimit="1.6"/>
      <text x="603.721" xml:space="preserve" y="530.183" clip-path="url(#clipPath2)" font-family="'Verdana'" stroke="none">b1:a</text>
      <path fill="none" d="M615.6019 456.2079 L615.6019 376.2881" clip-path="url(#clipPath2)"/>
      <path d="M615.6019 368.2881 L610.6019 380.2881 L615.6019 377.2881 L620.6019 380.2881 Z" clip-path="url(#clipPath2)" stroke="none"/>
      <rect x="599.5862" y="402.9595" clip-path="url(#clipPath2)" fill="rgb(255,102,0)" width="32.0312" height="18.584" stroke="none"/>
      <rect stroke-linecap="square" x="599.5862" y="402.9595" clip-path="url(#clipPath2)" fill="none" width="32.0312" height="18.584" stroke-miterlimit="1.6"/>
      <text x="601.5862" xml:space="preserve" y="417.024" clip-path="url(#clipPath2)" font-family="'Verdana'" stroke="none">b2:b</text>
      <path fill="none" stroke-dasharray="18,6" d="M848.9517 585.0214 L817.9861 570.8328 L806.1974 565.8885 L794.7865 562.0323 L783.7534 559.264 L773.0982 557.5837 L762.8208 556.9913 L752.9213 557.4869 L743.3995 559.0704 L734.2556 561.7419 L708.3098 571.0582" stroke-width="3" clip-path="url(#clipPath2)"/>
      <path stroke-dasharray="18,6" d="M698.8981 574.4377 L715.1277 575.2508 L709.4863 570.6358 L710.9034 563.4862 Z" stroke-width="3" clip-path="url(#clipPath2)" stroke="none"/>
    </g>
  </g>
</svg>
