<?xml version="1.0" encoding="UTF-8"?><svg xmlns="http://www.w3.org/2000/svg" xmlns:xlink="http://www.w3.org/1999/xlink" fill-opacity="1" color-rendering="auto" color-interpolation="auto" text-rendering="auto" stroke="black" stroke-linecap="square" width="274" stroke-miterlimit="10" shape-rendering="auto" stroke-opacity="1" fill="black" stroke-dasharray="none" font-weight="normal" stroke-width="1" height="442" font-family="'Dialog'" font-style="normal" stroke-linejoin="miter" font-size="12px" stroke-dashoffset="0" image-rendering="auto">
  <!--Generated by ySVG 2.5-->
  <defs id="genericDefs"/>
  <g>
    <defs id="defs1">
      <clipPath clipPathUnits="userSpaceOnUse" id="clipPath1">
        <path d="M0 0 L274 0 L274 442 L0 442 L0 0 Z"/>
      </clipPath>
      <clipPath clipPathUnits="userSpaceOnUse" id="clipPath2">
        <path d="M531 39 L805 39 L805 481 L531 481 L531 39 Z"/>
      </clipPath>
    </defs>
    <g fill="white" text-rendering="geometricPrecision" shape-rendering="geometricPrecision" transform="translate(-531,-39)" stroke="white">
      <rect x="531" width="274" height="442" y="39" clip-path="url(#clipPath2)" stroke="none"/>
    </g>
    <g text-rendering="geometricPrecision" shape-rendering="geometricPrecision" transform="matrix(1,0,0,1,-531,-39)">
      <ellipse rx="5.6362" ry="5.5254" clip-path="url(#clipPath2)" cx="552.0362" cy="342.0374" stroke="none"/>
      <ellipse stroke-linecap="butt" clip-path="url(#clipPath2)" fill="none" rx="5.6362" cx="552.0362" ry="5.5254" cy="342.0374" stroke-miterlimit="1.45"/>
      <ellipse rx="5.6362" ry="5.5254" clip-path="url(#clipPath2)" cx="617.6362" cy="251.6374" stroke="none"/>
      <ellipse stroke-linecap="butt" clip-path="url(#clipPath2)" fill="none" rx="5.6362" cx="617.6362" ry="5.5254" cy="251.6374" stroke-miterlimit="1.45"/>
      <ellipse rx="5.6362" ry="5.5254" clip-path="url(#clipPath2)" cx="617.6362" cy="437.0374" stroke="none"/>
      <text stroke-linecap="butt" x="603.7495" y="460.6273" clip-path="url(#clipPath2)" font-family="'Verdana'" stroke="none" stroke-miterlimit="1.45" xml:space="preserve">Zero</text>
      <ellipse stroke-linecap="butt" clip-path="url(#clipPath2)" fill="none" rx="5.6362" cx="617.6362" ry="5.5254" cy="437.0374" stroke-miterlimit="1.45"/>
      <ellipse rx="5.6362" ry="5.5254" clip-path="url(#clipPath2)" cx="552.0362" cy="157.3494" stroke="none"/>
      <ellipse stroke-linecap="butt" clip-path="url(#clipPath2)" fill="none" rx="5.6362" cx="552.0362" ry="5.5254" cy="157.3494" stroke-miterlimit="1.45"/>
      <ellipse rx="5.6362" ry="5.5254" clip-path="url(#clipPath2)" cx="679.8362" cy="342.0374" stroke="none"/>
      <ellipse stroke-linecap="butt" clip-path="url(#clipPath2)" fill="none" rx="5.6362" cx="679.8362" ry="5.5254" cy="342.0374" stroke-miterlimit="1.45"/>
      <ellipse rx="5.6362" ry="5.5254" clip-path="url(#clipPath2)" cx="739.8522" cy="251.6374" stroke="none"/>
      <ellipse stroke-linecap="butt" clip-path="url(#clipPath2)" fill="none" rx="5.6362" cx="739.8522" ry="5.5254" cy="251.6374" stroke-miterlimit="1.45"/>
      <ellipse rx="5.6362" ry="5.5254" clip-path="url(#clipPath2)" cx="739.8522" cy="157.3494" stroke="none"/>
      <ellipse stroke-linecap="butt" clip-path="url(#clipPath2)" fill="none" rx="5.6362" cx="739.8522" ry="5.5254" cy="157.3494" stroke-miterlimit="1.45"/>
      <ellipse rx="5.6362" ry="5.5254" clip-path="url(#clipPath2)" cx="679.8362" cy="67.7814" stroke="none"/>
      <ellipse stroke-linecap="butt" clip-path="url(#clipPath2)" fill="none" rx="5.6362" cx="679.8362" ry="5.5254" cy="67.7814" stroke-miterlimit="1.45"/>
      <ellipse rx="5.6362" ry="5.5254" clip-path="url(#clipPath2)" cx="783.3722" cy="67.7814" stroke="none"/>
      <ellipse stroke-linecap="butt" clip-path="url(#clipPath2)" fill="none" rx="5.6362" cx="783.3722" ry="5.5254" cy="67.7814" stroke-miterlimit="1.45"/>
      <path fill="none" stroke-miterlimit="1.45" d="M555.3033 337.5351 L609.6704 262.6146" clip-path="url(#clipPath2)" stroke-linecap="butt"/>
      <path stroke-miterlimit="1.45" d="M614.369 256.1398 L603.2744 262.9154 L609.0831 263.424 L611.3679 268.7886 Z" clip-path="url(#clipPath2)" stroke-linecap="butt" stroke="none"/>
    </g>
    <g stroke-linecap="butt" transform="matrix(1,0,0,1,-531,-39)" fill="white" text-rendering="geometricPrecision" shape-rendering="geometricPrecision" stroke="white" stroke-miterlimit="1.45">
      <rect x="568.8205" width="32.0312" height="18.584" y="287.5454" clip-path="url(#clipPath2)" stroke="none"/>
    </g>
    <g text-rendering="geometricPrecision" stroke-miterlimit="1.6" shape-rendering="geometricPrecision" transform="matrix(1,0,0,1,-531,-39)">
      <rect fill="none" x="568.8205" width="32.0312" height="18.584" y="287.5454" clip-path="url(#clipPath2)"/>
      <text stroke-linecap="butt" x="570.8206" y="301.6099" clip-path="url(#clipPath2)" font-family="'Verdana'" stroke="none" stroke-miterlimit="1.45" xml:space="preserve">b3:g</text>
      <path fill="none" stroke-miterlimit="1.45" d="M614.4766 432.4619 L559.7415 353.196" clip-path="url(#clipPath2)" stroke-linecap="butt"/>
      <path stroke-miterlimit="1.45" d="M555.1957 346.613 L557.9 359.3286 L560.3097 354.0189 L566.1287 353.6465 Z" clip-path="url(#clipPath2)" stroke-linecap="butt" stroke="none"/>
    </g>
    <g stroke-linecap="butt" transform="matrix(1,0,0,1,-531,-39)" fill="white" text-rendering="geometricPrecision" shape-rendering="geometricPrecision" stroke="white" stroke-miterlimit="1.45">
      <rect x="570.4494" width="28.7734" height="18.584" y="380.2454" clip-path="url(#clipPath2)" stroke="none"/>
    </g>
    <g text-rendering="geometricPrecision" stroke-miterlimit="1.6" shape-rendering="geometricPrecision" transform="matrix(1,0,0,1,-531,-39)">
      <rect fill="none" x="570.4494" width="28.7734" height="18.584" y="380.2454" clip-path="url(#clipPath2)"/>
      <text stroke-linecap="butt" x="572.4495" y="394.3099" clip-path="url(#clipPath2)" font-family="'Verdana'" stroke="none" stroke-miterlimit="1.45" xml:space="preserve">b1:f</text>
      <path fill="none" stroke-miterlimit="1.45" d="M614.4603 247.0727 L559.7809 168.4811" clip-path="url(#clipPath2)" stroke-linecap="butt"/>
      <path stroke-miterlimit="1.45" d="M555.212 161.9142 L557.9611 174.6202 L560.3521 169.302 L566.1697 168.9091 Z" clip-path="url(#clipPath2)" stroke-linecap="butt" stroke="none"/>
    </g>
    <g stroke-linecap="butt" transform="matrix(1,0,0,1,-531,-39)" fill="white" text-rendering="geometricPrecision" shape-rendering="geometricPrecision" stroke="white" stroke-miterlimit="1.45">
      <rect x="568.7619" width="32.1484" height="18.584" y="195.2014" clip-path="url(#clipPath2)" stroke="none"/>
    </g>
    <g text-rendering="geometricPrecision" stroke-miterlimit="1.6" shape-rendering="geometricPrecision" transform="matrix(1,0,0,1,-531,-39)">
      <rect fill="none" x="568.7619" width="32.1484" height="18.584" y="195.2014" clip-path="url(#clipPath2)"/>
      <text stroke-linecap="butt" x="570.762" y="209.2659" clip-path="url(#clipPath2)" font-family="'Verdana'" stroke="none" stroke-miterlimit="1.45" xml:space="preserve">b6:h</text>
      <path fill="none" stroke-miterlimit="1.45" d="M620.6807 432.3875 L672.4095 353.3804" clip-path="url(#clipPath2)" stroke-linecap="butt"/>
      <path stroke-miterlimit="1.45" d="M676.7917 346.6874 L666.0353 353.9881 L671.8617 354.217 L674.4016 359.4658 Z" clip-path="url(#clipPath2)" stroke-linecap="butt" stroke="none"/>
    </g>
    <g stroke-linecap="butt" transform="matrix(1,0,0,1,-531,-39)" fill="white" text-rendering="geometricPrecision" shape-rendering="geometricPrecision" stroke="white" stroke-miterlimit="1.45">
      <rect x="632.7205" width="32.0312" height="18.584" y="380.2454" clip-path="url(#clipPath2)" stroke="none"/>
    </g>
    <g text-rendering="geometricPrecision" stroke-miterlimit="1.6" shape-rendering="geometricPrecision" transform="matrix(1,0,0,1,-531,-39)">
      <rect fill="none" x="632.7205" width="32.0312" height="18.584" y="380.2454" clip-path="url(#clipPath2)"/>
      <text stroke-linecap="butt" x="634.7205" y="394.3099" clip-path="url(#clipPath2)" font-family="'Verdana'" stroke="none" stroke-miterlimit="1.45" xml:space="preserve">b2:g</text>
      <path fill="none" stroke-miterlimit="1.45" d="M676.6844 337.4567 L625.3226 262.8088" clip-path="url(#clipPath2)" stroke-linecap="butt"/>
      <path stroke-miterlimit="1.45" d="M620.788 256.2182 L623.4708 268.9383 L625.8895 263.6327 L631.7092 263.27 Z" clip-path="url(#clipPath2)" stroke-linecap="butt" stroke="none"/>
    </g>
    <g stroke-linecap="butt" transform="matrix(1,0,0,1,-531,-39)" fill="white" text-rendering="geometricPrecision" shape-rendering="geometricPrecision" stroke="white" stroke-miterlimit="1.45">
      <rect x="632.6619" width="32.1484" height="18.584" y="287.5454" clip-path="url(#clipPath2)" stroke="none"/>
    </g>
    <g text-rendering="geometricPrecision" stroke-miterlimit="1.6" shape-rendering="geometricPrecision" transform="matrix(1,0,0,1,-531,-39)">
      <rect fill="none" x="632.6619" width="32.1484" height="18.584" y="287.5454" clip-path="url(#clipPath2)"/>
      <text stroke-linecap="butt" x="634.6619" y="301.6099" clip-path="url(#clipPath2)" font-family="'Verdana'" stroke="none" stroke-miterlimit="1.45" xml:space="preserve">b4:h</text>
      <path fill="none" stroke-miterlimit="1.45" d="M682.9106 337.4065 L732.3529 262.9333" clip-path="url(#clipPath2)" stroke-linecap="butt"/>
      <path stroke-miterlimit="1.45" d="M736.7777 256.2684 L725.9749 263.5003 L731.7998 263.7664 L734.3061 269.0313 Z" clip-path="url(#clipPath2)" stroke-linecap="butt" stroke="none"/>
    </g>
    <g stroke-linecap="butt" transform="matrix(1,0,0,1,-531,-39)" fill="white" text-rendering="geometricPrecision" shape-rendering="geometricPrecision" stroke="white" stroke-miterlimit="1.45">
      <rect x="693.8285" width="32.0312" height="18.584" y="287.5454" clip-path="url(#clipPath2)" stroke="none"/>
    </g>
    <g text-rendering="geometricPrecision" stroke-miterlimit="1.6" shape-rendering="geometricPrecision" transform="matrix(1,0,0,1,-531,-39)">
      <rect fill="none" x="693.8285" width="32.0312" height="18.584" y="287.5454" clip-path="url(#clipPath2)"/>
      <text stroke-linecap="butt" x="695.8286" y="301.6099" clip-path="url(#clipPath2)" font-family="'Verdana'" stroke="none" stroke-miterlimit="1.45" xml:space="preserve">b5:p</text>
      <path fill="none" stroke-miterlimit="1.45" d="M739.8522 246.112 L739.8522 170.8749" clip-path="url(#clipPath2)" stroke-linecap="butt"/>
      <path stroke-miterlimit="1.45" d="M739.8522 162.8749 L734.8522 174.8749 L739.8522 171.8749 L744.8522 174.8749 Z" clip-path="url(#clipPath2)" stroke-linecap="butt" stroke="none"/>
    </g>
    <g stroke-linecap="butt" transform="matrix(1,0,0,1,-531,-39)" fill="white" text-rendering="geometricPrecision" shape-rendering="geometricPrecision" stroke="white" stroke-miterlimit="1.45">
      <rect x="723.8365" width="32.0312" height="18.584" y="195.2014" clip-path="url(#clipPath2)" stroke="none"/>
    </g>
    <g text-rendering="geometricPrecision" stroke-miterlimit="1.6" shape-rendering="geometricPrecision" transform="matrix(1,0,0,1,-531,-39)">
      <rect fill="none" x="723.8365" width="32.0312" height="18.584" y="195.2014" clip-path="url(#clipPath2)"/>
      <text stroke-linecap="butt" x="725.8365" y="209.2659" clip-path="url(#clipPath2)" font-family="'Verdana'" stroke="none" stroke-miterlimit="1.45" xml:space="preserve">b8:q</text>
      <path fill="none" stroke-miterlimit="1.45" d="M679.8362 336.512 L679.8362 81.3069" clip-path="url(#clipPath2)" stroke-linecap="butt"/>
      <path stroke-miterlimit="1.45" d="M679.8362 73.3069 L674.8362 85.3069 L679.8362 82.3069 L684.8362 85.3069 Z" clip-path="url(#clipPath2)" stroke-linecap="butt" stroke="none"/>
    </g>
    <g stroke-linecap="butt" transform="matrix(1,0,0,1,-531,-39)" fill="white" text-rendering="geometricPrecision" shape-rendering="geometricPrecision" stroke="white" stroke-miterlimit="1.45">
      <rect x="665.4494" width="28.7734" height="18.584" y="195.6174" clip-path="url(#clipPath2)" stroke="none"/>
    </g>
    <g text-rendering="geometricPrecision" stroke-miterlimit="1.6" shape-rendering="geometricPrecision" transform="matrix(1,0,0,1,-531,-39)">
      <rect fill="none" x="665.4494" width="28.7734" height="18.584" y="195.6174" clip-path="url(#clipPath2)"/>
      <text stroke-linecap="butt" x="667.4495" y="209.6819" clip-path="url(#clipPath2)" font-family="'Verdana'" stroke="none" stroke-miterlimit="1.45" xml:space="preserve">b7:f</text>
      <path fill="none" stroke-miterlimit="1.45" d="M736.7577 152.7313 L687.3838 79.0456" clip-path="url(#clipPath2)" stroke-linecap="butt"/>
      <path stroke-miterlimit="1.45" d="M682.9306 72.3996 L685.4567 85.1518 L687.9404 79.8763 L693.7642 79.5853 Z" clip-path="url(#clipPath2)" stroke-linecap="butt" stroke="none"/>
    </g>
    <g stroke-linecap="butt" transform="matrix(1,0,0,1,-531,-39)" fill="white" text-rendering="geometricPrecision" shape-rendering="geometricPrecision" stroke="white" stroke-miterlimit="1.45">
      <rect x="695.4574" width="28.7734" height="18.584" y="103.2734" clip-path="url(#clipPath2)" stroke="none"/>
    </g>
    <g text-rendering="geometricPrecision" stroke-miterlimit="1.6" shape-rendering="geometricPrecision" transform="matrix(1,0,0,1,-531,-39)">
      <rect fill="none" x="695.4574" width="28.7734" height="18.584" y="103.2734" clip-path="url(#clipPath2)"/>
      <text stroke-linecap="butt" x="697.4575" y="117.3379" clip-path="url(#clipPath2)" font-family="'Verdana'" stroke="none" stroke-miterlimit="1.45" xml:space="preserve">b9:f</text>
      <path fill="none" stroke-miterlimit="1.45" d="M742.2759 152.361 L777.4521 79.9654" clip-path="url(#clipPath2)" stroke-linecap="butt"/>
      <path stroke-miterlimit="1.45" d="M780.9484 72.7699 L771.2067 81.378 L777.0151 80.8649 L780.2012 85.7484 Z" clip-path="url(#clipPath2)" stroke-linecap="butt" stroke="none"/>
    </g>
    <g stroke-linecap="butt" transform="matrix(1,0,0,1,-531,-39)" fill="white" text-rendering="geometricPrecision" shape-rendering="geometricPrecision" stroke="white" stroke-miterlimit="1.45">
      <rect x="741.9168" width="39.3906" height="18.584" y="103.2734" clip-path="url(#clipPath2)" stroke="none"/>
    </g>
    <g text-rendering="geometricPrecision" stroke-miterlimit="1.6" shape-rendering="geometricPrecision" transform="matrix(1,0,0,1,-531,-39)">
      <rect fill="none" x="741.9168" width="39.3906" height="18.584" y="103.2734" clip-path="url(#clipPath2)"/>
      <text stroke-linecap="butt" x="743.9169" y="117.3379" clip-path="url(#clipPath2)" font-family="'Verdana'" stroke="none" stroke-miterlimit="1.45" xml:space="preserve">b10:a</text>
    </g>
  </g>
</svg>
