<?xml version="1.0" encoding="UTF-8"?><svg xmlns="http://www.w3.org/2000/svg" xmlns:xlink="http://www.w3.org/1999/xlink" fill-opacity="1" color-rendering="auto" color-interpolation="auto" text-rendering="auto" stroke="black" stroke-linecap="square" width="63" stroke-miterlimit="10" shape-rendering="auto" stroke-opacity="1" fill="black" stroke-dasharray="none" font-weight="normal" stroke-width="1" height="353" font-family="'Dialog'" font-style="normal" stroke-linejoin="miter" font-size="12px" stroke-dashoffset="0" image-rendering="auto">
  <!--Generated by ySVG 2.5-->
  <defs id="genericDefs"/>
  <g>
    <defs id="defs1">
      <clipPath clipPathUnits="userSpaceOnUse" id="clipPath1">
        <path d="M0 0 L63 0 L63 353 L0 353 L0 0 Z"/>
      </clipPath>
      <clipPath clipPathUnits="userSpaceOnUse" id="clipPath2">
        <path d="M550 94 L613 94 L613 447 L550 447 L550 94 Z"/>
      </clipPath>
    </defs>
    <g fill="white" text-rendering="geometricPrecision" shape-rendering="geometricPrecision" transform="translate(-550,-94)" stroke="white">
      <rect x="550" width="63" height="353" y="94" clip-path="url(#clipPath2)" stroke="none"/>
    </g>
    <g text-rendering="geometricPrecision" shape-rendering="geometricPrecision" transform="matrix(1,0,0,1,-550,-94)">
      <ellipse rx="5.6362" ry="5.5254" clip-path="url(#clipPath2)" cx="581.6362" cy="308.1254" stroke="none"/>
      <ellipse stroke-linecap="butt" clip-path="url(#clipPath2)" fill="none" rx="5.6362" cx="581.6362" ry="5.5254" cy="308.1254" stroke-miterlimit="1.45"/>
      <ellipse rx="5.6362" ry="5.5254" clip-path="url(#clipPath2)" cx="581.6362" cy="217.7254" stroke="none"/>
      <ellipse stroke-linecap="butt" clip-path="url(#clipPath2)" fill="none" rx="5.6362" cx="581.6362" ry="5.5254" cy="217.7254" stroke-miterlimit="1.45"/>
      <ellipse rx="5.6362" ry="5.5254" clip-path="url(#clipPath2)" cx="581.6362" cy="403.1254" stroke="none"/>
      <text stroke-linecap="butt" x="567.7495" y="426.7153" clip-path="url(#clipPath2)" font-family="'Verdana'" stroke="none" stroke-miterlimit="1.45" xml:space="preserve">Zero</text>
      <ellipse stroke-linecap="butt" clip-path="url(#clipPath2)" fill="none" rx="5.6362" cx="581.6362" ry="5.5254" cy="403.1254" stroke-miterlimit="1.45"/>
      <ellipse rx="5.6362" ry="5.5254" clip-path="url(#clipPath2)" cx="581.6362" cy="123.4374" stroke="none"/>
      <ellipse stroke-linecap="butt" clip-path="url(#clipPath2)" fill="none" rx="5.6362" cx="581.6362" ry="5.5254" cy="123.4374" stroke-miterlimit="1.45"/>
      <path fill="none" stroke-miterlimit="1.45" d="M581.6362 302.6 L581.6362 231.2509" clip-path="url(#clipPath2)" stroke-linecap="butt"/>
      <path stroke-miterlimit="1.45" d="M581.6362 223.2509 L576.6362 235.2509 L581.6362 232.2509 L586.6362 235.2509 Z" clip-path="url(#clipPath2)" stroke-linecap="butt" stroke="none"/>
    </g>
    <g stroke-linecap="butt" transform="matrix(1,0,0,1,-550,-94)" fill="white" text-rendering="geometricPrecision" shape-rendering="geometricPrecision" stroke="white" stroke-miterlimit="1.45">
      <rect x="575.8979" width="11.4766" height="18.584" y="253.6334" clip-path="url(#clipPath2)" stroke="none"/>
    </g>
    <g text-rendering="geometricPrecision" stroke-miterlimit="1.6" shape-rendering="geometricPrecision" transform="matrix(1,0,0,1,-550,-94)">
      <rect fill="none" x="575.8979" width="11.4766" height="18.584" y="253.6334" clip-path="url(#clipPath2)"/>
      <text stroke-linecap="butt" x="577.8979" y="267.6979" clip-path="url(#clipPath2)" font-family="'Verdana'" stroke="none" stroke-miterlimit="1.45" xml:space="preserve">g</text>
      <path fill="none" stroke-miterlimit="1.45" d="M581.6362 397.6 L581.6362 321.6509" clip-path="url(#clipPath2)" stroke-linecap="butt"/>
      <path stroke-miterlimit="1.45" d="M581.6362 313.6509 L576.6362 325.6509 L581.6362 322.6509 L586.6362 325.6509 Z" clip-path="url(#clipPath2)" stroke-linecap="butt" stroke="none"/>
    </g>
    <g stroke-linecap="butt" transform="matrix(1,0,0,1,-550,-94)" fill="white" text-rendering="geometricPrecision" shape-rendering="geometricPrecision" stroke="white" stroke-miterlimit="1.45">
      <rect x="577.5268" width="8.2188" height="18.584" y="346.3334" clip-path="url(#clipPath2)" stroke="none"/>
    </g>
    <g text-rendering="geometricPrecision" stroke-miterlimit="1.6" shape-rendering="geometricPrecision" transform="matrix(1,0,0,1,-550,-94)">
      <rect fill="none" x="577.5268" width="8.2188" height="18.584" y="346.3334" clip-path="url(#clipPath2)"/>
      <text stroke-linecap="butt" x="579.5268" y="360.3979" clip-path="url(#clipPath2)" font-family="'Verdana'" stroke="none" stroke-miterlimit="1.45" xml:space="preserve">f</text>
      <path fill="none" stroke-miterlimit="1.45" d="M581.6362 212.2 L581.6362 136.9629" clip-path="url(#clipPath2)" stroke-linecap="butt"/>
      <path stroke-miterlimit="1.45" d="M581.6362 128.9629 L576.6362 140.9629 L581.6362 137.9629 L586.6362 140.9629 Z" clip-path="url(#clipPath2)" stroke-linecap="butt" stroke="none"/>
    </g>
    <g stroke-linecap="butt" transform="matrix(1,0,0,1,-550,-94)" fill="white" text-rendering="geometricPrecision" shape-rendering="geometricPrecision" stroke="white" stroke-miterlimit="1.45">
      <rect x="575.8393" width="11.5938" height="18.584" y="161.2894" clip-path="url(#clipPath2)" stroke="none"/>
    </g>
    <g text-rendering="geometricPrecision" stroke-miterlimit="1.6" shape-rendering="geometricPrecision" transform="matrix(1,0,0,1,-550,-94)">
      <rect fill="none" x="575.8393" width="11.5938" height="18.584" y="161.2894" clip-path="url(#clipPath2)"/>
      <text stroke-linecap="butt" x="577.8393" y="175.3539" clip-path="url(#clipPath2)" font-family="'Verdana'" stroke="none" stroke-miterlimit="1.45" xml:space="preserve">h</text>
    </g>
  </g>
</svg>
