<?xml version="1.0" encoding="UTF-8"?><svg xmlns="http://www.w3.org/2000/svg" xmlns:xlink="http://www.w3.org/1999/xlink" fill-opacity="1" color-rendering="auto" color-interpolation="auto" text-rendering="auto" stroke="black" stroke-linecap="square" width="617" stroke-miterlimit="10" shape-rendering="auto" stroke-opacity="1" fill="black" stroke-dasharray="none" font-weight="normal" stroke-width="1" height="430" font-family="'Dialog'" font-style="normal" stroke-linejoin="miter" font-size="12px" stroke-dashoffset="0" image-rendering="auto">
  <!--Generated by ySVG 2.5-->
  <defs id="genericDefs"/>
  <g>
    <defs id="defs1">
      <clipPath clipPathUnits="userSpaceOnUse" id="clipPath1">
        <path d="M0 0 L617 0 L617 430 L0 430 L0 0 Z"/>
      </clipPath>
      <clipPath clipPathUnits="userSpaceOnUse" id="clipPath2">
        <path d="M316 170 L933 170 L933 600 L316 600 L316 170 Z"/>
      </clipPath>
    </defs>
    <g fill="white" text-rendering="geometricPrecision" shape-rendering="geometricPrecision" transform="translate(-316,-170)" stroke="white">
      <rect x="316" width="617" height="430" y="170" clip-path="url(#clipPath2)" stroke="none"/>
    </g>
    <g text-rendering="geometricPrecision" stroke-miterlimit="1.45" shape-rendering="geometricPrecision" font-family="'Trebuchet MS'" transform="matrix(1,0,0,1,-316,-170)" stroke-linecap="butt">
      <text x="520.168" xml:space="preserve" y="560.7708" clip-path="url(#clipPath2)" stroke="none">Alice: 8, Bob: 3, Charlie: 3</text>
      <rect x="510.6956" y="543.838" clip-path="url(#clipPath2)" fill="none" width="162.5815" rx="4" ry="4" height="25.264"/>
      <text x="471.0787" xml:space="preserve" y="311.4528" clip-path="url(#clipPath2)" stroke="none">Alice: 8, Bob: 0, Charlie: 6</text>
      <rect x="461.6063" y="294.52" clip-path="url(#clipPath2)" fill="none" width="162.5815" rx="4" ry="4" height="25.264"/>
      <text x="343.088" xml:space="preserve" y="428.4528" clip-path="url(#clipPath2)" stroke="none">Alice: 3, Bob: 8, Charlie: 3</text>
      <rect x="331.6156" y="411.52" clip-path="url(#clipPath2)" fill="none" width="166.5815" rx="4" ry="4" height="25.264"/>
      <text x="727.0602" xml:space="preserve" y="436.1118" clip-path="url(#clipPath2)" stroke="none">Alice: 4, Bob: 3, Charlie: 7</text>
      <rect x="717.5878" y="419.179" clip-path="url(#clipPath2)" fill="none" width="162.5815" rx="4" ry="4" height="25.264"/>
      <text x="790.6771" font-size="14px" y="577.1616" clip-path="url(#clipPath2)" stroke="none" font-weight="bold" xml:space="preserve">Global state "Zero"</text>
      <text x="658.0694" xml:space="preserve" y="311.4528" clip-path="url(#clipPath2)" stroke="none">Alice: 3, Bob: 8, Charlie: 3</text>
      <rect x="646.597" y="294.52" clip-path="url(#clipPath2)" fill="none" width="166.5815" rx="4" ry="4" height="25.264"/>
      <text x="471.0787" xml:space="preserve" y="202.3368" clip-path="url(#clipPath2)" stroke="none">Alice: 9, Bob: 0, Charlie: 5</text>
      <rect x="459.6063" y="185.404" clip-path="url(#clipPath2)" fill="none" width="166.5815" rx="4" ry="4" height="25.264"/>
      <path fill="none" d="M589.4995 543.8398 L546.9285 327.6273" clip-path="url(#clipPath2)"/>
      <path d="M545.3831 319.778 L542.7955 332.5179 L547.1217 328.6085 L552.6071 330.5861 Z" clip-path="url(#clipPath2)" stroke="none"/>
      <rect x="551.426" y="422.519" clip-path="url(#clipPath2)" fill="rgb(255,102,0)" width="32.0312" height="18.584" stroke="none"/>
      <rect stroke-linecap="square" x="551.426" y="422.519" clip-path="url(#clipPath2)" fill="none" width="32.0312" height="18.584" stroke-miterlimit="1.6"/>
      <text x="553.426" xml:space="preserve" y="436.5835" clip-path="url(#clipPath2)" font-family="'Verdana'" stroke="none">b2:b</text>
      <path fill="none" d="M575.0608 543.8229 L438.2452 441.5913" clip-path="url(#clipPath2)"/>
      <path d="M431.8367 436.8028 L438.4567 447.991 L439.0463 442.1899 L444.4424 439.9803 Z" clip-path="url(#clipPath2)" stroke="none"/>
      <rect x="487.5654" y="481.019" clip-path="url(#clipPath2)" fill="rgb(255,204,0)" width="31.7617" height="18.584" stroke="none"/>
      <rect stroke-linecap="square" x="487.5654" y="481.019" clip-path="url(#clipPath2)" fill="none" width="31.7617" height="18.584" stroke-miterlimit="1.6"/>
      <text x="489.5654" xml:space="preserve" y="495.0835" clip-path="url(#clipPath2)" font-family="'Verdana'" stroke="none">b1:a</text>
      <path fill="none" d="M612.9735 543.8245 L771.0801 448.5604" clip-path="url(#clipPath2)"/>
      <path d="M777.9324 444.4317 L765.0735 446.342 L770.2236 449.0764 L770.2344 454.9074 Z" clip-path="url(#clipPath2)" stroke="none"/>
      <rect x="680.0291" y="484.8485" clip-path="url(#clipPath2)" fill="rgb(204,255,204)" width="30.8066" height="18.584" stroke="none"/>
      <rect stroke-linecap="square" x="680.0291" y="484.8485" clip-path="url(#clipPath2)" fill="none" width="30.8066" height="18.584" stroke-miterlimit="1.6"/>
      <text x="682.0291" xml:space="preserve" y="498.913" clip-path="url(#clipPath2)" font-family="'Verdana'" stroke="none">b4:c</text>
      <path fill="none" stroke-dasharray="18,6" d="M823.3361 559.5013 L792.3705 545.3127 L780.5818 540.3685 L769.171 536.5123 L758.1379 533.744 L747.4827 532.0637 L737.2053 531.4713 L727.3057 531.9669 L717.7839 533.5504 L708.64 536.2219 L682.6942 545.5383" stroke-width="3" clip-path="url(#clipPath2)"/>
      <path stroke-dasharray="18,6" d="M673.2825 548.9177 L689.5121 549.7308 L683.8707 545.1158 L685.2878 537.9662 Z" stroke-width="3" clip-path="url(#clipPath2)" stroke="none"/>
      <path fill="none" d="M598.9723 543.8398 L719.032 326.7785" clip-path="url(#clipPath2)"/>
      <path d="M722.9041 319.778 L712.7207 327.8587 L718.548 327.6536 L721.4713 332.6989 Z" clip-path="url(#clipPath2)" stroke="none"/>
      <rect x="645.0562" y="422.519" clip-path="url(#clipPath2)" fill="rgb(204,255,255)" width="31.7617" height="18.584" stroke="none"/>
      <rect stroke-linecap="square" x="645.0562" y="422.519" clip-path="url(#clipPath2)" fill="none" width="31.7617" height="18.584" stroke-miterlimit="1.6"/>
      <text x="647.0562" xml:space="preserve" y="436.5835" clip-path="url(#clipPath2)" font-family="'Verdana'" stroke="none">b3:a</text>
      <path fill="none" d="M542.897 294.4982 L542.897 218.7061" clip-path="url(#clipPath2)"/>
      <path d="M542.897 210.7061 L537.897 222.7061 L542.897 219.7061 L547.897 222.7061 Z" clip-path="url(#clipPath2)" stroke="none"/>
      <rect x="526.8814" y="243.302" clip-path="url(#clipPath2)" fill="rgb(255,102,0)" width="32.0312" height="18.584" stroke="none"/>
      <rect stroke-linecap="square" x="526.8814" y="243.302" clip-path="url(#clipPath2)" fill="none" width="32.0312" height="18.584" stroke-miterlimit="1.6"/>
      <text x="528.8814" xml:space="preserve" y="257.3665" clip-path="url(#clipPath2)" font-family="'Verdana'" stroke="none">b5:d</text>
    </g>
  </g>
</svg>
