<?xml version="1.0" encoding="UTF-8"?><svg xmlns="http://www.w3.org/2000/svg" xmlns:xlink="http://www.w3.org/1999/xlink" fill-opacity="1" color-rendering="auto" color-interpolation="auto" text-rendering="auto" stroke="black" stroke-linecap="square" width="440" stroke-miterlimit="10" shape-rendering="auto" stroke-opacity="1" fill="black" stroke-dasharray="none" font-weight="normal" stroke-width="1" height="272" font-family="'Dialog'" font-style="normal" stroke-linejoin="miter" font-size="12px" stroke-dashoffset="0" image-rendering="auto">
  <!--Generated by ySVG 2.5-->
  <defs id="genericDefs"/>
  <g>
    <defs id="defs1">
      <clipPath clipPathUnits="userSpaceOnUse" id="clipPath1">
        <path d="M0 0 L440 0 L440 272 L0 272 L0 0 Z"/>
      </clipPath>
      <clipPath clipPathUnits="userSpaceOnUse" id="clipPath2">
        <path d="M544 379 L984 379 L984 651 L544 651 L544 379 Z"/>
      </clipPath>
    </defs>
    <g fill="white" text-rendering="geometricPrecision" shape-rendering="geometricPrecision" transform="translate(-544,-379)" stroke="white">
      <rect x="544" width="440" height="272" y="379" clip-path="url(#clipPath2)" stroke="none"/>
    </g>
    <g text-rendering="geometricPrecision" stroke-miterlimit="1.45" shape-rendering="geometricPrecision" font-family="'Trebuchet MS'" transform="matrix(1,0,0,1,-544,-379)" stroke-linecap="butt">
      <text x="571.0946" xml:space="preserve" y="611.3308" clip-path="url(#clipPath2)" stroke="none">Alice: 8, Bob: 3, Charlie: 3</text>
      <rect x="561.6222" y="594.398" clip-path="url(#clipPath2)" fill="none" width="162.5815" rx="4" ry="4" height="25.264"/>
      <text x="569.0946" xml:space="preserve" y="511.2513" clip-path="url(#clipPath2)" stroke="none">Alice: 8, Bob: 0, Charlie: 6</text>
      <rect x="559.6222" y="494.3185" clip-path="url(#clipPath2)" fill="none" width="162.5815" rx="4" ry="4" height="25.264"/>
      <text x="571.0946" xml:space="preserve" y="411.1718" clip-path="url(#clipPath2)" stroke="none">Alice: 3, Bob: 5, Charlie: 6</text>
      <rect x="559.6222" y="394.239" clip-path="url(#clipPath2)" fill="none" width="166.5815" rx="4" ry="4" height="25.264"/>
      <text x="841.6037" font-size="14px" y="627.7216" clip-path="url(#clipPath2)" stroke="none" font-weight="bold" xml:space="preserve">Global state "Zero"</text>
      <path fill="none" d="M640.913 594.4194 L640.913 527.5498" clip-path="url(#clipPath2)"/>
      <path d="M640.913 519.5498 L635.913 531.5498 L640.913 528.5498 L645.913 531.5498 Z" clip-path="url(#clipPath2)" stroke="none"/>
      <rect x="624.8974" y="547.6983" clip-path="url(#clipPath2)" fill="rgb(255,102,0)" width="32.0312" height="18.584" stroke="none"/>
      <rect stroke-linecap="square" x="624.8974" y="547.6983" clip-path="url(#clipPath2)" fill="none" width="32.0312" height="18.584" stroke-miterlimit="1.6"/>
      <text x="626.8973" xml:space="preserve" y="561.7627" clip-path="url(#clipPath2)" font-family="'Verdana'" stroke="none">b2:b</text>
      <path fill="none" d="M641.1659 494.294 L642.5015 427.4621" clip-path="url(#clipPath2)"/>
      <path d="M642.6613 419.4637 L637.4225 431.3614 L642.4815 428.4619 L647.4205 431.5612 Z" clip-path="url(#clipPath2)" stroke="none"/>
      <rect x="626.0321" y="447.6188" clip-path="url(#clipPath2)" fill="rgb(255,204,0)" width="31.7617" height="18.584" stroke="none"/>
      <rect stroke-linecap="square" x="626.0321" y="447.6188" clip-path="url(#clipPath2)" fill="none" width="31.7617" height="18.584" stroke-miterlimit="1.6"/>
      <text x="628.0321" xml:space="preserve" y="461.6832" clip-path="url(#clipPath2)" font-family="'Verdana'" stroke="none">b1:a</text>
      <path fill="none" stroke-dasharray="18,6" d="M874.2628 610.0613 L843.2972 595.8728 L831.5085 590.9286 L820.0976 587.0723 L809.0645 584.304 L798.4093 582.6237 L788.1319 582.0312 L778.2323 582.5269 L768.7106 584.1104 L759.5667 586.7819 L733.6208 596.0983" stroke-width="3" clip-path="url(#clipPath2)"/>
      <path stroke-dasharray="18,6" d="M724.2092 599.4777 L740.4388 600.2908 L734.7973 595.6758 L736.2145 588.5262 Z" stroke-width="3" clip-path="url(#clipPath2)" stroke="none"/>
    </g>
  </g>
</svg>
