<?xml version="1.0" encoding="UTF-8"?><svg xmlns="http://www.w3.org/2000/svg" xmlns:xlink="http://www.w3.org/1999/xlink" fill-opacity="1" color-rendering="auto" color-interpolation="auto" text-rendering="auto" stroke="black" stroke-linecap="square" width="63" stroke-miterlimit="10" shape-rendering="auto" stroke-opacity="1" fill="black" stroke-dasharray="none" font-weight="normal" stroke-width="1" height="353" font-family="'Dialog'" font-style="normal" stroke-linejoin="miter" font-size="12px" stroke-dashoffset="0" image-rendering="auto">
  <!--Generated by ySVG 2.5-->
  <defs id="genericDefs"/>
  <g>
    <defs id="defs1">
      <clipPath clipPathUnits="userSpaceOnUse" id="clipPath1">
        <path d="M0 0 L63 0 L63 353 L0 353 L0 0 Z"/>
      </clipPath>
      <clipPath clipPathUnits="userSpaceOnUse" id="clipPath2">
        <path d="M586 128 L649 128 L649 481 L586 481 L586 128 Z"/>
      </clipPath>
    </defs>
    <g fill="white" text-rendering="geometricPrecision" shape-rendering="geometricPrecision" transform="translate(-586,-128)" stroke="white">
      <rect x="586" width="63" height="353" y="128" clip-path="url(#clipPath2)" stroke="none"/>
    </g>
    <g text-rendering="geometricPrecision" shape-rendering="geometricPrecision" transform="matrix(1,0,0,1,-586,-128)">
      <ellipse rx="5.6362" ry="5.5254" clip-path="url(#clipPath2)" cx="617.6362" cy="342.0374" stroke="none"/>
      <ellipse stroke-linecap="butt" clip-path="url(#clipPath2)" fill="none" rx="5.6362" cx="617.6362" ry="5.5254" cy="342.0374" stroke-miterlimit="1.45"/>
      <ellipse rx="5.6362" ry="5.5254" clip-path="url(#clipPath2)" cx="617.6362" cy="251.6374" stroke="none"/>
      <ellipse stroke-linecap="butt" clip-path="url(#clipPath2)" fill="none" rx="5.6362" cx="617.6362" ry="5.5254" cy="251.6374" stroke-miterlimit="1.45"/>
      <ellipse rx="5.6362" ry="5.5254" clip-path="url(#clipPath2)" cx="617.6362" cy="437.0374" stroke="none"/>
      <text stroke-linecap="butt" x="603.7495" y="460.6273" clip-path="url(#clipPath2)" font-family="'Verdana'" stroke="none" stroke-miterlimit="1.45" xml:space="preserve">Zero</text>
      <ellipse stroke-linecap="butt" clip-path="url(#clipPath2)" fill="none" rx="5.6362" cx="617.6362" ry="5.5254" cy="437.0374" stroke-miterlimit="1.45"/>
      <ellipse rx="5.6362" ry="5.5254" clip-path="url(#clipPath2)" cx="617.6362" cy="157.3494" stroke="none"/>
      <ellipse stroke-linecap="butt" clip-path="url(#clipPath2)" fill="none" rx="5.6362" cx="617.6362" ry="5.5254" cy="157.3494" stroke-miterlimit="1.45"/>
      <path fill="none" stroke-miterlimit="1.45" d="M617.6362 336.512 L617.6362 265.1629" clip-path="url(#clipPath2)" stroke-linecap="butt"/>
      <path stroke-miterlimit="1.45" d="M617.6362 257.1629 L612.6362 269.1629 L617.6362 266.1629 L622.6362 269.1629 Z" clip-path="url(#clipPath2)" stroke-linecap="butt" stroke="none"/>
    </g>
    <g stroke-linecap="butt" transform="matrix(1,0,0,1,-586,-128)" fill="white" text-rendering="geometricPrecision" shape-rendering="geometricPrecision" stroke="white" stroke-miterlimit="1.45">
      <rect x="613.5268" width="8.2188" height="18.584" y="287.5454" clip-path="url(#clipPath2)" stroke="none"/>
    </g>
    <g text-rendering="geometricPrecision" stroke-miterlimit="1.6" shape-rendering="geometricPrecision" transform="matrix(1,0,0,1,-586,-128)">
      <rect fill="none" x="613.5268" width="8.2188" height="18.584" y="287.5454" clip-path="url(#clipPath2)"/>
      <text stroke-linecap="butt" x="615.5268" y="301.6099" clip-path="url(#clipPath2)" font-family="'Verdana'" stroke="none" stroke-miterlimit="1.45" xml:space="preserve">f</text>
      <path fill="none" stroke-miterlimit="1.45" d="M617.6362 431.512 L617.6362 355.5629" clip-path="url(#clipPath2)" stroke-linecap="butt"/>
      <path stroke-miterlimit="1.45" d="M617.6362 347.5629 L612.6362 359.5629 L617.6362 356.5629 L622.6362 359.5629 Z" clip-path="url(#clipPath2)" stroke-linecap="butt" stroke="none"/>
    </g>
    <g stroke-linecap="butt" transform="matrix(1,0,0,1,-586,-128)" fill="white" text-rendering="geometricPrecision" shape-rendering="geometricPrecision" stroke="white" stroke-miterlimit="1.45">
      <rect x="613.5268" width="8.2188" height="18.584" y="380.2454" clip-path="url(#clipPath2)" stroke="none"/>
    </g>
    <g text-rendering="geometricPrecision" stroke-miterlimit="1.6" shape-rendering="geometricPrecision" transform="matrix(1,0,0,1,-586,-128)">
      <rect fill="none" x="613.5268" width="8.2188" height="18.584" y="380.2454" clip-path="url(#clipPath2)"/>
      <text stroke-linecap="butt" x="615.5268" y="394.3099" clip-path="url(#clipPath2)" font-family="'Verdana'" stroke="none" stroke-miterlimit="1.45" xml:space="preserve">f</text>
      <path fill="none" stroke-miterlimit="1.45" d="M617.6362 246.112 L617.6362 170.8749" clip-path="url(#clipPath2)" stroke-linecap="butt"/>
      <path stroke-miterlimit="1.45" d="M617.6362 162.8749 L612.6362 174.8749 L617.6362 171.8749 L622.6362 174.8749 Z" clip-path="url(#clipPath2)" stroke-linecap="butt" stroke="none"/>
    </g>
    <g stroke-linecap="butt" transform="matrix(1,0,0,1,-586,-128)" fill="white" text-rendering="geometricPrecision" shape-rendering="geometricPrecision" stroke="white" stroke-miterlimit="1.45">
      <rect x="613.5268" width="8.2188" height="18.584" y="195.2014" clip-path="url(#clipPath2)" stroke="none"/>
    </g>
    <g text-rendering="geometricPrecision" stroke-miterlimit="1.6" shape-rendering="geometricPrecision" transform="matrix(1,0,0,1,-586,-128)">
      <rect fill="none" x="613.5268" width="8.2188" height="18.584" y="195.2014" clip-path="url(#clipPath2)"/>
      <text stroke-linecap="butt" x="615.5268" y="209.2659" clip-path="url(#clipPath2)" font-family="'Verdana'" stroke="none" stroke-miterlimit="1.45" xml:space="preserve">f</text>
    </g>
  </g>
</svg>
