<?xml version="1.0" encoding="UTF-8"?><svg xmlns="http://www.w3.org/2000/svg" xmlns:xlink="http://www.w3.org/1999/xlink" fill-opacity="1" color-rendering="auto" color-interpolation="auto" text-rendering="auto" stroke="black" stroke-linecap="square" width="64" stroke-miterlimit="10" shape-rendering="auto" stroke-opacity="1" fill="black" stroke-dasharray="none" font-weight="normal" stroke-width="1" height="352" font-family="'Dialog'" font-style="normal" stroke-linejoin="miter" font-size="12px" stroke-dashoffset="0" image-rendering="auto">
  <!--Generated by ySVG 2.5-->
  <defs id="genericDefs"/>
  <g>
    <defs id="defs1">
      <clipPath clipPathUnits="userSpaceOnUse" id="clipPath1">
        <path d="M0 0 L64 0 L64 352 L0 352 L0 0 Z"/>
      </clipPath>
      <clipPath clipPathUnits="userSpaceOnUse" id="clipPath2">
        <path d="M622 162 L686 162 L686 514 L622 514 L622 162 Z"/>
      </clipPath>
    </defs>
    <g fill="white" text-rendering="geometricPrecision" shape-rendering="geometricPrecision" transform="translate(-622,-162)" stroke="white">
      <rect x="622" width="64" height="352" y="162" clip-path="url(#clipPath2)" stroke="none"/>
    </g>
    <g text-rendering="geometricPrecision" shape-rendering="geometricPrecision" transform="matrix(1,0,0,1,-622,-162)">
      <ellipse rx="5.6362" ry="5.5254" clip-path="url(#clipPath2)" cx="653.6362" cy="375.8614" stroke="none"/>
      <ellipse stroke-linecap="butt" clip-path="url(#clipPath2)" fill="none" rx="5.6362" cx="653.6362" ry="5.5254" cy="375.8614" stroke-miterlimit="1.45"/>
      <ellipse rx="5.6362" ry="5.5254" clip-path="url(#clipPath2)" cx="653.6362" cy="285.4614" stroke="none"/>
      <ellipse stroke-linecap="butt" clip-path="url(#clipPath2)" fill="none" rx="5.6362" cx="653.6362" ry="5.5254" cy="285.4614" stroke-miterlimit="1.45"/>
      <ellipse rx="5.6362" ry="5.5254" clip-path="url(#clipPath2)" cx="653.6362" cy="470.8614" stroke="none"/>
      <text stroke-linecap="butt" x="639.7495" y="494.4513" clip-path="url(#clipPath2)" font-family="'Verdana'" stroke="none" stroke-miterlimit="1.45" xml:space="preserve">Zero</text>
      <ellipse stroke-linecap="butt" clip-path="url(#clipPath2)" fill="none" rx="5.6362" cx="653.6362" ry="5.5254" cy="470.8614" stroke-miterlimit="1.45"/>
      <ellipse rx="5.6362" ry="5.5254" clip-path="url(#clipPath2)" cx="653.6362" cy="191.1734" stroke="none"/>
      <ellipse stroke-linecap="butt" clip-path="url(#clipPath2)" fill="none" rx="5.6362" cx="653.6362" ry="5.5254" cy="191.1734" stroke-miterlimit="1.45"/>
      <path fill="none" stroke-miterlimit="1.45" d="M653.6362 370.336 L653.6362 298.9869" clip-path="url(#clipPath2)" stroke-linecap="butt"/>
      <path stroke-miterlimit="1.45" d="M653.6362 290.9869 L648.6362 302.9869 L653.6362 299.9869 L658.6362 302.9869 Z" clip-path="url(#clipPath2)" stroke-linecap="butt" stroke="none"/>
    </g>
    <g stroke-linecap="butt" transform="matrix(1,0,0,1,-622,-162)" fill="white" text-rendering="geometricPrecision" shape-rendering="geometricPrecision" stroke="white" stroke-miterlimit="1.45">
      <rect x="637.1401" width="32.9922" height="18.584" y="321.3694" clip-path="url(#clipPath2)" stroke="none"/>
    </g>
    <g text-rendering="geometricPrecision" stroke-miterlimit="1.6" shape-rendering="geometricPrecision" transform="matrix(1,0,0,1,-622,-162)">
      <rect fill="none" x="637.1401" width="32.9922" height="18.584" y="321.3694" clip-path="url(#clipPath2)"/>
      <text stroke-linecap="butt" x="639.1401" y="335.4339" clip-path="url(#clipPath2)" font-family="'Verdana'" stroke="none" stroke-miterlimit="1.45" xml:space="preserve">b2: f</text>
      <path fill="none" stroke-miterlimit="1.45" d="M653.6362 465.336 L653.6362 389.3869" clip-path="url(#clipPath2)" stroke-linecap="butt"/>
      <path stroke-miterlimit="1.45" d="M653.6362 381.3869 L648.6362 393.3869 L653.6362 390.3869 L658.6362 393.3869 Z" clip-path="url(#clipPath2)" stroke-linecap="butt" stroke="none"/>
    </g>
    <g stroke-linecap="butt" transform="matrix(1,0,0,1,-622,-162)" fill="white" text-rendering="geometricPrecision" shape-rendering="geometricPrecision" stroke="white" stroke-miterlimit="1.45">
      <rect x="637.1401" width="32.9922" height="18.584" y="414.0694" clip-path="url(#clipPath2)" stroke="none"/>
    </g>
    <g text-rendering="geometricPrecision" stroke-miterlimit="1.6" shape-rendering="geometricPrecision" transform="matrix(1,0,0,1,-622,-162)">
      <rect fill="none" x="637.1401" width="32.9922" height="18.584" y="414.0694" clip-path="url(#clipPath2)"/>
      <text stroke-linecap="butt" x="639.1401" y="428.1339" clip-path="url(#clipPath2)" font-family="'Verdana'" stroke="none" stroke-miterlimit="1.45" xml:space="preserve">b1: f</text>
      <path fill="none" stroke-miterlimit="1.45" d="M653.6362 279.936 L653.6362 204.6989" clip-path="url(#clipPath2)" stroke-linecap="butt"/>
      <path stroke-miterlimit="1.45" d="M653.6362 196.6989 L648.6362 208.6989 L653.6362 205.6989 L658.6362 208.6989 Z" clip-path="url(#clipPath2)" stroke-linecap="butt" stroke="none"/>
    </g>
    <g stroke-linecap="butt" transform="matrix(1,0,0,1,-622,-162)" fill="white" text-rendering="geometricPrecision" shape-rendering="geometricPrecision" stroke="white" stroke-miterlimit="1.45">
      <rect x="637.1401" width="32.9922" height="18.584" y="229.0254" clip-path="url(#clipPath2)" stroke="none"/>
    </g>
    <g text-rendering="geometricPrecision" stroke-miterlimit="1.6" shape-rendering="geometricPrecision" transform="matrix(1,0,0,1,-622,-162)">
      <rect fill="none" x="637.1401" width="32.9922" height="18.584" y="229.0254" clip-path="url(#clipPath2)"/>
      <text stroke-linecap="butt" x="639.1401" y="243.0899" clip-path="url(#clipPath2)" font-family="'Verdana'" stroke="none" stroke-miterlimit="1.45" xml:space="preserve">b3: f</text>
    </g>
  </g>
</svg>
